<?xml version="1.0" standalone="no"?><!DOCTYPE svg PUBLIC "-//W3C//DTD SVG 20010904//EN" "http://www.w3.org/TR/2001/REC-SVG-20010904/DTD/svg10.dtd"><svg version="1.0" xmlns="http://www.w3.org/2000/svg" width="300.000000pt" height="300.000000pt" viewBox="0 0 300.000000 300.000000" preserveAspectRatio="xMidYMid meet"><metadata>Created by potrace 1.16, written by Peter Selinger 2001-2019</metadata><g transform="translate(0.000000,300.000000) scale(0.100000,-0.100000)"fill="#000000" stroke="none"><path d="M395 2208 c-3 -7 -4 -328 -3 -713 l3 -700 208 -3 207 -2 0 291 0 29250 -6 c55 -7 90 -26 117 -65 10 -15 72 -135 139 -267 l121 -240 226 -3 c208-2 226 -1 220 14 -5 14 -2 16 20 10 64 -16 240 -27 327 -21 203 14 338 64 433159 65 64 99 128 127 231 23 85 23 89 -18 205 -59 172 -202 253 -613 345 -17139 -216 75 -185 150 21 49 66 70 151 69 110 -1 183 -50 202 -137 3 -15 9 -2912 -32 6 -3 402 15 408 19 1 0 -3 23 -8 49 -31 169 -150 286 -334 331 -151 36-229 41 -362 22 -148 -20 -231 -44 -296 -86 l-48 -31 -40 32 c-103 81 -229 99-701 99 -278 0 -360 -3 -363 -12z m666 -288 c74 -14 110 -51 116 -117 6 -53-9 -94 -45 -126 -28 -25 -154 -49 -242 -45 l-75 3 -3 148 -3 147 99 0 c55 0124 -5 153 -10z m484 -415 c81 -48 167 -79 349 -125 170 -42 237 -73 261 -12065 -125 -84 -233 -260 -189 -82 21 -165 119 -165 196 l0 25 -142 -7 -143 -6-29 40 c-17 23 -52 52 -83 68 -54 29 -66 43 -35 43 28 0 135 55 161 84 14 1425 26 27 26 1 0 27 -16 59 -35z"/></g></svg>