<svg width="110" height="110" viewBox="0 0 110 110" fill="none" xmlns="http://www.w3.org/2000/svg">
<circle cx="55" cy="55" r="54" stroke="#666666" stroke-width="2" stroke-linecap="round" stroke-dasharray="0.1 4"/>
<path d="M62.9375 75.5H46.0625V78.25C46.0625 78.9793 45.7662 79.6788 45.2387 80.1945C44.7113 80.7103 43.9959 81 43.25 81H40.4375C39.6916 81 38.9762 80.7103 38.4488 80.1945C37.9213 79.6788 37.625 78.9793 37.625 78.25V75.5C36.1332 75.5 34.7024 74.9205 33.6475 73.8891C32.5926 72.8576 32 71.4587 32 70V31.5C32 28.475 34.5312 26 37.625 26H71.375C72.8668 26 74.2976 26.5795 75.3525 27.6109C76.4074 28.6424 77 30.0413 77 31.5V70C77 71.4587 76.4074 72.8576 75.3525 73.8891C74.2976 74.9205 72.8668 75.5 71.375 75.5V78.25C71.375 78.9793 71.0787 79.6788 70.5512 80.1945C70.0238 80.7103 69.3084 81 68.5625 81H65.75C65.0041 81 64.2887 80.7103 63.7613 80.1945C63.2338 79.6788 62.9375 78.9793 62.9375 78.25V75.5ZM37.625 39.75V56.25H51.6875V39.75H37.625ZM57.3125 39.75V56.25H71.375V39.75H57.3125ZM40.4375 31.5V34.25H68.5625V31.5H40.4375ZM41.8438 70C42.9626 70 44.0357 69.5654 44.8269 68.7918C45.618 68.0182 46.0625 66.969 46.0625 65.875C46.0625 64.781 45.618 63.7318 44.8269 62.9582C44.0357 62.1846 42.9626 61.75 41.8438 61.75C40.7249 61.75 39.6518 62.1846 38.8606 62.9582C38.0695 63.7318 37.625 64.781 37.625 65.875C37.625 66.969 38.0695 68.0182 38.8606 68.7918C39.6518 69.5654 40.7249 70 41.8438 70ZM67.1562 70C68.2751 70 69.3482 69.5654 70.1394 68.7918C70.9305 68.0182 71.375 66.969 71.375 65.875C71.375 64.781 70.9305 63.7318 70.1394 62.9582C69.3482 62.1846 68.2751 61.75 67.1562 61.75C66.0374 61.75 64.9643 62.1846 64.1731 62.9582C63.382 63.7318 62.9375 64.781 62.9375 65.875C62.9375 66.969 63.382 68.0182 64.1731 68.7918C64.9643 69.5654 66.0374 70 67.1562 70Z" fill="#666666"/>
</svg>
